<svg width="50" height="50" viewBox="0 0 50 50" fill="none" xmlns="http://www.w3.org/2000/svg">
<path d="M19.5077 14.1994C19.3184 14.3883 19.1683 14.6126 19.0658 14.8596C18.9634 15.1066 18.9106 15.3714 18.9106 15.6387C18.9106 15.9061 18.9634 16.1709 19.0658 16.4179C19.1683 16.6649 19.3184 16.8892 19.5077 17.0781L27.4294 24.9998L19.5077 32.9215C19.126 33.3032 18.9115 33.821 18.9115 34.3608C18.9115 34.9007 19.126 35.4185 19.5077 35.8002C19.8895 36.182 20.4072 36.3964 20.9471 36.3964C21.487 36.3964 22.0047 36.182 22.3865 35.8002L31.7577 26.429C31.947 26.2401 32.0971 26.0157 32.1996 25.7687C32.3021 25.5217 32.3548 25.257 32.3548 24.9896C32.3548 24.7222 32.3021 24.4574 32.1996 24.2104C32.0971 23.9634 31.947 23.7391 31.7577 23.5502L22.3865 14.179C21.6106 13.4031 20.304 13.4031 19.5077 14.1994Z" fill="black"/>
</svg>
