<svg width="24" height="24" viewBox="0 0 24 24" fill="none" xmlns="http://www.w3.org/2000/svg">
<path fill-rule="evenodd" clip-rule="evenodd" d="M19.5 0.75C20.4946 0.75 21.4484 1.14509 22.1517 1.84835C22.8549 2.55161 23.25 3.50544 23.25 4.5V19.5C23.25 20.4946 22.8549 21.4484 22.1517 22.1517C21.4484 22.8549 20.4946 23.25 19.5 23.25H4.5C3.50544 23.25 2.55161 22.8549 1.84835 22.1517C1.14509 21.4484 0.75 20.4946 0.75 19.5V4.5C0.75 3.50544 1.14509 2.55161 1.84835 1.84835C2.55161 1.14509 3.50544 0.75 4.5 0.75H19.5ZM7 9.5C6.66848 9.5 6.35054 9.6317 6.11612 9.86612C5.8817 10.1005 5.75 10.4185 5.75 10.75V17C5.75 17.3315 5.8817 17.6495 6.11612 17.8839C6.35054 18.1183 6.66848 18.25 7 18.25C7.33152 18.25 7.64946 18.1183 7.88388 17.8839C8.1183 17.6495 8.25 17.3315 8.25 17V10.75C8.25 10.4185 8.1183 10.1005 7.88388 9.86612C7.64946 9.6317 7.33152 9.5 7 9.5ZM10.75 8.25C10.4185 8.25 10.1005 8.3817 9.86612 8.61612C9.6317 8.85054 9.5 9.16848 9.5 9.5V17C9.5 17.3315 9.6317 17.6495 9.86612 17.8839C10.1005 18.1183 10.4185 18.25 10.75 18.25C11.0815 18.25 11.3995 18.1183 11.6339 17.8839C11.8683 17.6495 12 17.3315 12 17V12.425C12.3813 11.995 13.025 11.49 13.7412 11.1838C14.1575 11.0063 14.7837 10.9338 15.2188 11.0712C15.3631 11.1079 15.4916 11.1903 15.585 11.3062C15.65 11.3937 15.75 11.5887 15.75 12V17C15.75 17.3315 15.8817 17.6495 16.1161 17.8839C16.3505 18.1183 16.6685 18.25 17 18.25C17.3315 18.25 17.6495 18.1183 17.8839 17.8839C18.1183 17.6495 18.25 17.3315 18.25 17V12C18.25 11.1625 18.0375 10.4175 17.595 9.82C17.1878 9.2782 16.6179 8.88091 15.9688 8.68625C14.8413 8.3325 13.5925 8.52875 12.7588 8.88625C12.4918 9.00105 12.2318 9.13128 11.98 9.27625C11.9276 8.98824 11.7758 8.72775 11.551 8.5402C11.3262 8.35266 11.0427 8.24996 10.75 8.25ZM7 5.75C6.66848 5.75 6.35054 5.8817 6.11612 6.11612C5.8817 6.35054 5.75 6.66848 5.75 7C5.75 7.33152 5.8817 7.64946 6.11612 7.88388C6.35054 8.1183 6.66848 8.25 7 8.25C7.33152 8.25 7.64946 8.1183 7.88388 7.88388C8.1183 7.64946 8.25 7.33152 8.25 7C8.25 6.66848 8.1183 6.35054 7.88388 6.11612C7.64946 5.8817 7.33152 5.75 7 5.75Z" fill="#FAFAFA"/>
</svg>
