<svg width="67" height="60" viewBox="0 0 67 60" fill="none" xmlns="http://www.w3.org/2000/svg">
<g clip-path="url(#clip0_617_49)">
<path d="M33.5 67C52.0015 67 67 52.0015 67 33.5C67 14.9985 52.0015 0 33.5 0C14.9985 0 0 14.9985 0 33.5C0 52.0015 14.9985 67 33.5 67Z" fill="#FF4500"/>
<path d="M55.7855 33.8195C55.7855 31.1039 53.5895 28.947 50.9131 28.947C49.6489 28.9453 48.4328 29.4318 47.5186 30.3051C44.1639 27.9085 39.5708 26.3513 34.4589 26.1516L36.695 15.6878L43.9637 17.2451C44.0441 19.0823 45.5612 20.5603 47.4388 20.5603C49.3556 20.5603 50.9131 19.003 50.9131 17.0852C50.9131 15.1683 49.3559 13.6108 47.4388 13.6108C46.081 13.6108 44.8823 14.4096 44.3233 15.568L36.2163 13.8506C35.9766 13.8103 35.7368 13.8506 35.5769 13.9704C35.3772 14.0903 35.2576 14.2897 35.2181 14.5295L32.7412 26.1911C27.5495 26.3513 22.8765 27.9085 19.482 30.3451C18.5677 29.4719 17.3516 28.9855 16.0873 28.9873C13.3714 28.9873 11.2148 31.1834 11.2148 33.8598C11.2148 35.8564 12.4127 37.5335 14.0906 38.293C14.0091 38.7813 13.969 39.2756 13.9707 39.7707C13.9707 47.2783 22.7174 53.3895 33.5005 53.3895C44.2838 53.3895 53.0304 47.3186 53.0304 39.7707C53.0305 39.2757 52.9904 38.7815 52.9106 38.293C54.5877 37.5335 55.7855 35.8161 55.7855 33.8195ZM22.3175 37.2938C22.3175 35.3769 23.8747 33.8195 25.7926 33.8195C27.7094 33.8195 29.2669 35.3767 29.2669 37.2938C29.2669 39.2109 27.7097 40.7689 25.7926 40.7689C23.875 40.8081 22.3175 39.2109 22.3175 37.2938ZM41.7676 46.5196C39.3713 48.9162 34.8182 49.0761 33.5005 49.0761C32.1427 49.0761 27.5898 48.8759 25.2328 46.5196C24.8739 46.1603 24.8739 45.601 25.2328 45.2416C25.5924 44.8828 26.1514 44.8828 26.511 45.2416C28.029 46.7596 31.224 47.2783 33.5005 47.2783C35.7769 47.2783 39.0117 46.7594 40.4894 45.2416C40.849 44.8828 41.408 44.8828 41.7676 45.2416C42.0869 45.601 42.0869 46.1603 41.7676 46.5196ZM41.1283 40.8084C39.2112 40.8084 37.6539 39.2512 37.6539 37.3341C37.6539 35.417 39.2112 33.8598 41.1283 33.8598C43.0459 33.8598 44.6031 35.417 44.6031 37.3341C44.6031 39.2106 43.0459 40.8084 41.1283 40.8084Z" fill="white"/>
</g>
<defs>
<clipPath id="clip0_617_49">
<rect width="67" height="67" fill="white"/>
</clipPath>
</defs>
</svg>
