<svg width="63" height="63" viewBox="0 0 63 63" fill="none" xmlns="http://www.w3.org/2000/svg">
<g clip-path="url(#clip0_617_41)">
<path d="M48.2344 0H14.7656C6.6108 0 0 6.6108 0 14.7656V48.2344C0 56.3892 6.6108 63 14.7656 63H48.2344C56.3892 63 63 56.3892 63 48.2344V14.7656C63 6.6108 56.3892 0 48.2344 0Z" fill="#5865F2"/>
<mask id="mask0_617_41" style="mask-type:luminance" maskUnits="userSpaceOnUse" x="6" y="12" width="51" height="39">
<path d="M6.89062 12.5508H56.1094V50.6781H6.89062V12.5508Z" fill="white"/>
</mask>
<g mask="url(#mask0_617_41)">
<path d="M48.5561 15.9463C45.3651 14.4818 41.9976 13.4372 38.5379 12.8389C38.5064 12.8332 38.474 12.8374 38.4451 12.8511C38.4162 12.8648 38.3924 12.8872 38.3769 12.9152C37.9443 13.6845 37.4649 14.6885 37.1295 15.4775C33.3463 14.911 29.5828 14.911 25.8773 15.4775C25.5417 14.6708 25.0451 13.6845 24.6105 12.9152C24.5944 12.8877 24.5705 12.8657 24.5417 12.852C24.5129 12.8384 24.4807 12.8338 24.4493 12.8389C20.9892 13.4359 17.6216 14.4805 14.431 15.9463C14.4039 15.9582 14.3809 15.9779 14.3651 16.0029C7.98436 25.5356 6.2366 34.834 7.09399 44.0173C7.09922 44.0626 7.12223 44.104 7.15798 44.1324C11.3677 47.2241 15.4457 49.1011 19.4479 50.3451C19.479 50.3543 19.5122 50.3538 19.5431 50.3437C19.574 50.3336 19.601 50.3143 19.6207 50.2885C20.5674 48.9955 21.4112 47.6324 22.135 46.1989C22.145 46.1792 22.1507 46.1577 22.1517 46.1357C22.1527 46.1137 22.1491 46.0918 22.141 46.0713C22.133 46.0508 22.1206 46.0323 22.1049 46.0169C22.0891 46.0015 22.0703 45.9896 22.0496 45.9821C20.7109 45.4741 19.4363 44.8552 18.2103 44.1521C18.188 44.139 18.1692 44.1205 18.1557 44.0984C18.1422 44.0763 18.1343 44.0512 18.1328 44.0253C18.1312 43.9995 18.1361 43.9736 18.1469 43.9501C18.1577 43.9265 18.1742 43.906 18.1948 43.8903C18.4534 43.6969 18.7076 43.4977 18.9572 43.2928C18.9791 43.2747 19.0055 43.2632 19.0336 43.2593C19.0617 43.2555 19.0903 43.2596 19.1162 43.2711C27.1713 46.9487 35.8916 46.9487 43.8515 43.2711C43.8775 43.2589 43.9065 43.2542 43.935 43.2577C43.9635 43.2612 43.9904 43.2727 44.0127 43.2908C44.2625 43.4969 44.5174 43.6968 44.7771 43.8903C44.7978 43.9058 44.8144 43.9262 44.8254 43.9497C44.8363 43.9731 44.8414 43.9989 44.84 44.0248C44.8387 44.0507 44.831 44.0758 44.8177 44.098C44.8044 44.1202 44.7858 44.1388 44.7636 44.1521C43.5368 44.8684 42.2519 45.4799 40.9223 45.9801C40.9017 45.9881 40.883 46.0003 40.8674 46.0159C40.8518 46.0315 40.8397 46.0503 40.8319 46.0709C40.824 46.0915 40.8205 46.1136 40.8218 46.1356C40.823 46.1577 40.8288 46.1792 40.8389 46.1989C41.5751 47.621 42.4147 48.9873 43.351 50.2865C43.3701 50.313 43.3971 50.3328 43.428 50.3433C43.459 50.3538 43.4924 50.3544 43.5237 50.3451C47.5454 49.1011 51.6234 47.2241 55.8334 44.1324C55.8513 44.1191 55.8663 44.1021 55.8774 44.0826C55.8884 44.0631 55.8952 44.0415 55.8973 44.0192C56.9235 33.4025 54.1784 24.1801 48.6201 16.0049C48.6066 15.9783 48.5838 15.9574 48.5561 15.9463ZM23.3379 38.4258C20.9127 38.4258 18.9144 36.1994 18.9144 33.465C18.9144 30.7307 20.874 28.5042 23.3379 28.5042C25.821 28.5042 27.7998 30.7503 27.7609 33.465C27.7609 36.1994 25.8015 38.4258 23.3379 38.4258ZM39.6923 38.4258C37.2671 38.4258 35.269 36.1994 35.269 33.465C35.269 30.7307 37.2284 28.5042 39.6923 28.5042C42.1754 28.5042 44.1542 30.7503 44.1156 33.465C44.1156 36.1994 42.1754 38.4258 39.6923 38.4258Z" fill="white"/>
</g>
</g>
<defs>
<clipPath id="clip0_617_41">
<rect width="63" height="63" fill="white"/>
</clipPath>
</defs>
</svg>
